<svg width="552" height="222" viewBox="0 0 552 222" fill="none" xmlns="http://www.w3.org/2000/svg">
<path d="M26.752 5.28V100H8.832V5.28H26.752ZM69.545 101.152C62.7183 101.152 56.5743 99.6587 51.113 96.672C45.6517 93.6 41.3423 89.2907 38.185 83.744C35.113 78.1973 33.577 71.7973 33.577 64.544C33.577 57.2907 35.1557 50.8907 38.313 45.344C41.5557 39.7973 45.9503 35.5307 51.497 32.544C57.0437 29.472 63.2303 27.936 70.057 27.936C76.8837 27.936 83.0703 29.472 88.617 32.544C94.1637 35.5307 98.5157 39.7973 101.673 45.344C104.916 50.8907 106.537 57.2907 106.537 64.544C106.537 71.7973 104.873 78.1973 101.545 83.744C98.3023 89.2907 93.865 93.6 88.233 96.672C82.6863 99.6587 76.457 101.152 69.545 101.152ZM69.545 85.536C72.7877 85.536 75.817 84.768 78.633 83.232C81.5343 81.6107 83.8383 79.2213 85.545 76.064C87.2517 72.9067 88.105 69.0667 88.105 64.544C88.105 57.8027 86.313 52.64 82.729 49.056C79.2303 45.3867 74.921 43.552 69.801 43.552C64.681 43.552 60.3717 45.3867 56.873 49.056C53.4597 52.64 51.753 57.8027 51.753 64.544C51.753 71.2853 53.417 76.4907 56.745 80.16C60.1583 83.744 64.425 85.536 69.545 85.536ZM108.674 64.544C108.674 57.2053 110.167 50.8053 113.154 45.344C116.141 39.7973 120.279 35.5307 125.57 32.544C130.861 29.472 136.919 27.936 143.746 27.936C152.535 27.936 159.789 30.1547 165.506 34.592C171.309 38.944 175.191 45.088 177.154 53.024H157.826C156.802 49.952 155.053 47.5627 152.578 45.856C150.189 44.064 147.202 43.168 143.618 43.168C138.498 43.168 134.445 45.0453 131.458 48.8C128.471 52.4693 126.978 57.7173 126.978 64.544C126.978 71.2853 128.471 76.5333 131.458 80.288C134.445 83.9573 138.498 85.792 143.618 85.792C150.871 85.792 155.607 82.5493 157.826 76.064H177.154C175.191 83.744 171.309 89.8453 165.506 94.368C159.703 98.8907 152.45 101.152 143.746 101.152C136.919 101.152 130.861 99.6587 125.57 96.672C120.279 93.6 116.141 89.3333 113.154 83.872C110.167 78.3253 108.674 71.8827 108.674 64.544ZM179.274 64.288C179.274 57.12 180.682 50.7627 183.498 45.216C186.399 39.6693 190.282 35.4027 195.146 32.416C200.095 29.4293 205.599 27.936 211.658 27.936C216.949 27.936 221.557 29.0027 225.482 31.136C229.493 33.2693 232.693 35.9573 235.082 39.2V29.088H253.13V100H235.082V89.632C232.778 92.96 229.578 95.7333 225.482 97.952C221.471 100.085 216.821 101.152 211.53 101.152C205.557 101.152 200.095 99.616 195.146 96.544C190.282 93.472 186.399 89.1627 183.498 83.616C180.682 77.984 179.274 71.5413 179.274 64.288ZM235.082 64.544C235.082 60.192 234.229 56.48 232.522 53.408C230.815 50.2507 228.511 47.8613 225.61 46.24C222.709 44.5333 219.594 43.68 216.266 43.68C212.938 43.68 209.866 44.4907 207.05 46.112C204.234 47.7333 201.93 50.1227 200.138 53.28C198.431 56.352 197.578 60.0213 197.578 64.288C197.578 68.5547 198.431 72.3093 200.138 75.552C201.93 78.7093 204.234 81.1413 207.05 82.848C209.951 84.5547 213.023 85.408 216.266 85.408C219.594 85.408 222.709 84.5973 225.61 82.976C228.511 81.2693 230.815 78.88 232.522 75.808C234.229 72.6507 235.082 68.896 235.082 64.544ZM282.152 5.28V100H264.232V5.28H282.152ZM333.393 28.064C338.769 28.064 343.548 29.2587 347.729 31.648C351.91 33.952 355.153 37.408 357.457 42.016C359.846 46.5387 361.041 52 361.041 58.4V100H343.121V60.832C343.121 55.2 341.713 50.8907 338.897 47.904C336.081 44.832 332.241 43.296 327.377 43.296C322.428 43.296 318.502 44.832 315.601 47.904C312.785 50.8907 311.377 55.2 311.377 60.832V100H293.457V5.28H311.377V37.92C313.681 34.848 316.753 32.4587 320.593 30.752C324.433 28.96 328.7 28.064 333.393 28.064ZM403.17 101.152C396.343 101.152 390.199 99.6587 384.738 96.672C379.277 93.6 374.967 89.2907 371.81 83.744C368.738 78.1973 367.202 71.7973 367.202 64.544C367.202 57.2907 368.781 50.8907 371.938 45.344C375.181 39.7973 379.575 35.5307 385.122 32.544C390.669 29.472 396.855 27.936 403.682 27.936C410.509 27.936 416.695 29.472 422.242 32.544C427.789 35.5307 432.141 39.7973 435.298 45.344C438.541 50.8907 440.162 57.2907 440.162 64.544C440.162 71.7973 438.498 78.1973 435.17 83.744C431.927 89.2907 427.49 93.6 421.858 96.672C416.311 99.6587 410.082 101.152 403.17 101.152ZM403.17 85.536C406.413 85.536 409.442 84.768 412.258 83.232C415.159 81.6107 417.463 79.2213 419.17 76.064C420.877 72.9067 421.73 69.0667 421.73 64.544C421.73 57.8027 419.938 52.64 416.354 49.056C412.855 45.3867 408.546 43.552 403.426 43.552C398.306 43.552 393.997 45.3867 390.498 49.056C387.085 52.64 385.378 57.8027 385.378 64.544C385.378 71.2853 387.042 76.4907 390.37 80.16C393.783 83.744 398.05 85.536 403.17 85.536ZM474.043 101.152C468.24 101.152 463.035 100.128 458.427 98.08C453.819 95.9467 450.15 93.088 447.419 89.504C444.774 85.92 443.323 81.952 443.067 77.6H461.115C461.456 80.3307 462.779 82.592 465.083 84.384C467.472 86.176 470.416 87.072 473.915 87.072C477.328 87.072 479.974 86.3893 481.851 85.024C483.814 83.6587 484.795 81.9093 484.795 79.776C484.795 77.472 483.6 75.7653 481.211 74.656C478.907 73.4613 475.195 72.1813 470.075 70.816C464.784 69.536 460.432 68.2133 457.019 66.848C453.691 65.4827 450.79 63.392 448.315 60.576C445.926 57.76 444.731 53.9627 444.731 49.184C444.731 45.2587 445.84 41.6747 448.059 38.432C450.363 35.1893 453.606 32.6293 457.787 30.752C462.054 28.8747 467.046 27.936 472.763 27.936C481.211 27.936 487.952 30.0693 492.987 34.336C498.022 38.5173 500.795 44.192 501.307 51.36H484.155C483.899 48.544 482.704 46.3253 480.571 44.704C478.523 42.9973 475.75 42.144 472.251 42.144C469.008 42.144 466.491 42.7413 464.699 43.936C462.992 45.1307 462.139 46.7947 462.139 48.928C462.139 51.3173 463.334 53.152 465.723 54.432C468.112 55.6267 471.824 56.864 476.859 58.144C481.979 59.424 486.203 60.7467 489.531 62.112C492.859 63.4773 495.718 65.6107 498.107 68.512C500.582 71.328 501.862 75.0827 501.947 79.776C501.947 83.872 500.795 87.5413 498.491 90.784C496.272 94.0267 493.03 96.5867 488.763 98.464C484.582 100.256 479.675 101.152 474.043 101.152ZM531.121 43.808V78.112C531.121 80.5013 531.676 82.2507 532.785 83.36C533.98 84.384 535.942 84.896 538.673 84.896H546.993V100H535.729C520.625 100 513.073 92.6613 513.073 77.984V43.808H504.625V29.088H513.073V11.552H531.121V29.088H546.993V43.808H531.121Z" fill="black"/>
<path d="M35.968 212.152C30.1653 212.152 24.96 211.128 20.352 209.08C15.744 206.947 12.0747 204.088 9.344 200.504C6.69867 196.92 5.248 192.952 4.992 188.6H23.04C23.3813 191.331 24.704 193.592 27.008 195.384C29.3973 197.176 32.3413 198.072 35.84 198.072C39.2533 198.072 41.8987 197.389 43.776 196.024C45.7387 194.659 46.72 192.909 46.72 190.776C46.72 188.472 45.5253 186.765 43.136 185.656C40.832 184.461 37.12 183.181 32 181.816C26.7093 180.536 22.3573 179.213 18.944 177.848C15.616 176.483 12.7147 174.392 10.24 171.576C7.85067 168.76 6.656 164.963 6.656 160.184C6.656 156.259 7.76533 152.675 9.984 149.432C12.288 146.189 15.5307 143.629 19.712 141.752C23.9787 139.875 28.9707 138.936 34.688 138.936C43.136 138.936 49.8773 141.069 54.912 145.336C59.9467 149.517 62.72 155.192 63.232 162.36H46.08C45.824 159.544 44.6293 157.325 42.496 155.704C40.448 153.997 37.6747 153.144 34.176 153.144C30.9333 153.144 28.416 153.741 26.624 154.936C24.9173 156.131 24.064 157.795 24.064 159.928C24.064 162.317 25.2587 164.152 27.648 165.432C30.0373 166.627 33.7493 167.864 38.784 169.144C43.904 170.424 48.128 171.747 51.456 173.112C54.784 174.477 57.6427 176.611 60.032 179.512C62.5067 182.328 63.7867 186.083 63.872 190.776C63.872 194.872 62.72 198.541 60.416 201.784C58.1973 205.027 54.9547 207.587 50.688 209.464C46.5067 211.256 41.6 212.152 35.968 212.152ZM93.046 154.808V189.112C93.046 191.501 93.6007 193.251 94.71 194.36C95.9047 195.384 97.8673 195.896 100.598 195.896H108.918V211H97.654C82.55 211 74.998 203.661 74.998 188.984V154.808H66.55V140.088H74.998V122.552H93.046V140.088H108.918V154.808H93.046ZM182.351 140.088V211H164.303V202.04C161.999 205.112 158.97 207.544 155.215 209.336C151.546 211.043 147.535 211.896 143.183 211.896C137.636 211.896 132.73 210.744 128.463 208.44C124.196 206.051 120.826 202.595 118.351 198.072C115.962 193.464 114.767 188.003 114.767 181.688V140.088H132.687V179.128C132.687 184.76 134.095 189.112 136.911 192.184C139.727 195.171 143.567 196.664 148.431 196.664C153.38 196.664 157.263 195.171 160.079 192.184C162.895 189.112 164.303 184.76 164.303 179.128V140.088H182.351ZM189.024 175.288C189.024 168.12 190.432 161.763 193.248 156.216C196.149 150.669 200.075 146.403 205.024 143.416C209.973 140.429 215.477 138.936 221.536 138.936C226.144 138.936 230.539 139.96 234.72 142.008C238.901 143.971 242.229 146.616 244.704 149.944V116.28H262.88V211H244.704V200.504C242.485 204.003 239.371 206.819 235.36 208.952C231.349 211.085 226.699 212.152 221.408 212.152C215.435 212.152 209.973 210.616 205.024 207.544C200.075 204.472 196.149 200.163 193.248 194.616C190.432 188.984 189.024 182.541 189.024 175.288ZM244.832 175.544C244.832 171.192 243.979 167.48 242.272 164.408C240.565 161.251 238.261 158.861 235.36 157.24C232.459 155.533 229.344 154.68 226.016 154.68C222.688 154.68 219.616 155.491 216.8 157.112C213.984 158.733 211.68 161.123 209.888 164.28C208.181 167.352 207.328 171.021 207.328 175.288C207.328 179.555 208.181 183.309 209.888 186.552C211.68 189.709 213.984 192.141 216.8 193.848C219.701 195.555 222.773 196.408 226.016 196.408C229.344 196.408 232.459 195.597 235.36 193.976C238.261 192.269 240.565 189.88 242.272 186.808C243.979 183.651 244.832 179.896 244.832 175.544ZM283.07 131.64C279.913 131.64 277.267 130.659 275.134 128.696C273.086 126.648 272.062 124.131 272.062 121.144C272.062 118.157 273.086 115.683 275.134 113.72C277.267 111.672 279.913 110.648 283.07 110.648C286.227 110.648 288.83 111.672 290.878 113.72C293.011 115.683 294.078 118.157 294.078 121.144C294.078 124.131 293.011 126.648 290.878 128.696C288.83 130.659 286.227 131.64 283.07 131.64ZM291.902 140.088V211H273.982V140.088H291.902ZM334.695 212.152C327.868 212.152 321.724 210.659 316.263 207.672C310.802 204.6 306.492 200.291 303.335 194.744C300.263 189.197 298.727 182.797 298.727 175.544C298.727 168.291 300.306 161.891 303.463 156.344C306.706 150.797 311.1 146.531 316.647 143.544C322.194 140.472 328.38 138.936 335.207 138.936C342.034 138.936 348.22 140.472 353.767 143.544C359.314 146.531 363.666 150.797 366.823 156.344C370.066 161.891 371.687 168.291 371.687 175.544C371.687 182.797 370.023 189.197 366.695 194.744C363.452 200.291 359.015 204.6 353.383 207.672C347.836 210.659 341.607 212.152 334.695 212.152ZM334.695 196.536C337.938 196.536 340.967 195.768 343.783 194.232C346.684 192.611 348.988 190.221 350.695 187.064C352.402 183.907 353.255 180.067 353.255 175.544C353.255 168.803 351.463 163.64 347.879 160.056C344.38 156.387 340.071 154.552 334.951 154.552C329.831 154.552 325.522 156.387 322.023 160.056C318.61 163.64 316.903 168.803 316.903 175.544C316.903 182.285 318.567 187.491 321.895 191.16C325.308 194.744 329.575 196.536 334.695 196.536Z" fill="black"/>
</svg>
