<svg width="688" height="300" viewBox="0 0 688 300" fill="none" xmlns="http://www.w3.org/2000/svg">
<path d="M94.752 44.28V139H76.832V44.28H94.752ZM137.545 140.152C130.718 140.152 124.574 138.659 119.113 135.672C113.652 132.6 109.342 128.291 106.185 122.744C103.113 117.197 101.577 110.797 101.577 103.544C101.577 96.2907 103.156 89.8907 106.313 84.344C109.556 78.7973 113.95 74.5307 119.497 71.544C125.044 68.472 131.23 66.936 138.057 66.936C144.884 66.936 151.07 68.472 156.617 71.544C162.164 74.5307 166.516 78.7973 169.673 84.344C172.916 89.8907 174.537 96.2907 174.537 103.544C174.537 110.797 172.873 117.197 169.545 122.744C166.302 128.291 161.865 132.6 156.233 135.672C150.686 138.659 144.457 140.152 137.545 140.152ZM137.545 124.536C140.788 124.536 143.817 123.768 146.633 122.232C149.534 120.611 151.838 118.221 153.545 115.064C155.252 111.907 156.105 108.067 156.105 103.544C156.105 96.8027 154.313 91.64 150.729 88.056C147.23 84.3867 142.921 82.552 137.801 82.552C132.681 82.552 128.372 84.3867 124.873 88.056C121.46 91.64 119.753 96.8027 119.753 103.544C119.753 110.285 121.417 115.491 124.745 119.16C128.158 122.744 132.425 124.536 137.545 124.536ZM176.674 103.544C176.674 96.2053 178.167 89.8053 181.154 84.344C184.141 78.7973 188.279 74.5307 193.57 71.544C198.861 68.472 204.919 66.936 211.746 66.936C220.535 66.936 227.789 69.1547 233.506 73.592C239.309 77.944 243.191 84.088 245.154 92.024H225.826C224.802 88.952 223.053 86.5627 220.578 84.856C218.189 83.064 215.202 82.168 211.618 82.168C206.498 82.168 202.445 84.0453 199.458 87.8C196.471 91.4693 194.978 96.7173 194.978 103.544C194.978 110.285 196.471 115.533 199.458 119.288C202.445 122.957 206.498 124.792 211.618 124.792C218.871 124.792 223.607 121.549 225.826 115.064H245.154C243.191 122.744 239.309 128.845 233.506 133.368C227.703 137.891 220.45 140.152 211.746 140.152C204.919 140.152 198.861 138.659 193.57 135.672C188.279 132.6 184.141 128.333 181.154 122.872C178.167 117.325 176.674 110.883 176.674 103.544ZM247.274 103.288C247.274 96.12 248.682 89.7627 251.498 84.216C254.399 78.6693 258.282 74.4027 263.146 71.416C268.095 68.4293 273.599 66.936 279.658 66.936C284.949 66.936 289.557 68.0027 293.482 70.136C297.493 72.2693 300.693 74.9573 303.082 78.2V68.088H321.13V139H303.082V128.632C300.778 131.96 297.578 134.733 293.482 136.952C289.471 139.085 284.821 140.152 279.53 140.152C273.557 140.152 268.095 138.616 263.146 135.544C258.282 132.472 254.399 128.163 251.498 122.616C248.682 116.984 247.274 110.541 247.274 103.288ZM303.082 103.544C303.082 99.192 302.229 95.48 300.522 92.408C298.815 89.2507 296.511 86.8613 293.61 85.24C290.709 83.5333 287.594 82.68 284.266 82.68C280.938 82.68 277.866 83.4907 275.05 85.112C272.234 86.7333 269.93 89.1227 268.138 92.28C266.431 95.352 265.578 99.0213 265.578 103.288C265.578 107.555 266.431 111.309 268.138 114.552C269.93 117.709 272.234 120.141 275.05 121.848C277.951 123.555 281.023 124.408 284.266 124.408C287.594 124.408 290.709 123.597 293.61 121.976C296.511 120.269 298.815 117.88 300.522 114.808C302.229 111.651 303.082 107.896 303.082 103.544ZM350.152 44.28V139H332.232V44.28H350.152ZM401.393 67.064C406.769 67.064 411.548 68.2587 415.729 70.648C419.91 72.952 423.153 76.408 425.457 81.016C427.846 85.5387 429.041 91 429.041 97.4V139H411.121V99.832C411.121 94.2 409.713 89.8907 406.897 86.904C404.081 83.832 400.241 82.296 395.377 82.296C390.428 82.296 386.502 83.832 383.601 86.904C380.785 89.8907 379.377 94.2 379.377 99.832V139H361.457V44.28H379.377V76.92C381.681 73.848 384.753 71.4587 388.593 69.752C392.433 67.96 396.7 67.064 401.393 67.064ZM471.17 140.152C464.343 140.152 458.199 138.659 452.738 135.672C447.277 132.6 442.967 128.291 439.81 122.744C436.738 117.197 435.202 110.797 435.202 103.544C435.202 96.2907 436.781 89.8907 439.938 84.344C443.181 78.7973 447.575 74.5307 453.122 71.544C458.669 68.472 464.855 66.936 471.682 66.936C478.509 66.936 484.695 68.472 490.242 71.544C495.789 74.5307 500.141 78.7973 503.298 84.344C506.541 89.8907 508.162 96.2907 508.162 103.544C508.162 110.797 506.498 117.197 503.17 122.744C499.927 128.291 495.49 132.6 489.858 135.672C484.311 138.659 478.082 140.152 471.17 140.152ZM471.17 124.536C474.413 124.536 477.442 123.768 480.258 122.232C483.159 120.611 485.463 118.221 487.17 115.064C488.877 111.907 489.73 108.067 489.73 103.544C489.73 96.8027 487.938 91.64 484.354 88.056C480.855 84.3867 476.546 82.552 471.426 82.552C466.306 82.552 461.997 84.3867 458.498 88.056C455.085 91.64 453.378 96.8027 453.378 103.544C453.378 110.285 455.042 115.491 458.37 119.16C461.783 122.744 466.05 124.536 471.17 124.536ZM542.043 140.152C536.24 140.152 531.035 139.128 526.427 137.08C521.819 134.947 518.15 132.088 515.419 128.504C512.774 124.92 511.323 120.952 511.067 116.6H529.115C529.456 119.331 530.779 121.592 533.083 123.384C535.472 125.176 538.416 126.072 541.915 126.072C545.328 126.072 547.974 125.389 549.851 124.024C551.814 122.659 552.795 120.909 552.795 118.776C552.795 116.472 551.6 114.765 549.211 113.656C546.907 112.461 543.195 111.181 538.075 109.816C532.784 108.536 528.432 107.213 525.019 105.848C521.691 104.483 518.79 102.392 516.315 99.576C513.926 96.76 512.731 92.9627 512.731 88.184C512.731 84.2587 513.84 80.6747 516.059 77.432C518.363 74.1893 521.606 71.6293 525.787 69.752C530.054 67.8747 535.046 66.936 540.763 66.936C549.211 66.936 555.952 69.0693 560.987 73.336C566.022 77.5173 568.795 83.192 569.307 90.36H552.155C551.899 87.544 550.704 85.3253 548.571 83.704C546.523 81.9973 543.75 81.144 540.251 81.144C537.008 81.144 534.491 81.7413 532.699 82.936C530.992 84.1307 530.139 85.7947 530.139 87.928C530.139 90.3173 531.334 92.152 533.723 93.432C536.112 94.6267 539.824 95.864 544.859 97.144C549.979 98.424 554.203 99.7467 557.531 101.112C560.859 102.477 563.718 104.611 566.107 107.512C568.582 110.328 569.862 114.083 569.947 118.776C569.947 122.872 568.795 126.541 566.491 129.784C564.272 133.027 561.03 135.587 556.763 137.464C552.582 139.256 547.675 140.152 542.043 140.152ZM599.121 82.808V117.112C599.121 119.501 599.676 121.251 600.785 122.36C601.98 123.384 603.942 123.896 606.673 123.896H614.993V139H603.729C588.625 139 581.073 131.661 581.073 116.984V82.808H572.625V68.088H581.073V50.552H599.121V68.088H614.993V82.808H599.121Z" fill="black"/>
<path d="M103.968 251.152C98.1653 251.152 92.96 250.128 88.352 248.08C83.744 245.947 80.0747 243.088 77.344 239.504C74.6987 235.92 73.248 231.952 72.992 227.6H91.04C91.3813 230.331 92.704 232.592 95.008 234.384C97.3973 236.176 100.341 237.072 103.84 237.072C107.253 237.072 109.899 236.389 111.776 235.024C113.739 233.659 114.72 231.909 114.72 229.776C114.72 227.472 113.525 225.765 111.136 224.656C108.832 223.461 105.12 222.181 100 220.816C94.7093 219.536 90.3573 218.213 86.944 216.848C83.616 215.483 80.7147 213.392 78.24 210.576C75.8507 207.76 74.656 203.963 74.656 199.184C74.656 195.259 75.7653 191.675 77.984 188.432C80.288 185.189 83.5307 182.629 87.712 180.752C91.9787 178.875 96.9707 177.936 102.688 177.936C111.136 177.936 117.877 180.069 122.912 184.336C127.947 188.517 130.72 194.192 131.232 201.36H114.08C113.824 198.544 112.629 196.325 110.496 194.704C108.448 192.997 105.675 192.144 102.176 192.144C98.9333 192.144 96.416 192.741 94.624 193.936C92.9173 195.131 92.064 196.795 92.064 198.928C92.064 201.317 93.2587 203.152 95.648 204.432C98.0373 205.627 101.749 206.864 106.784 208.144C111.904 209.424 116.128 210.747 119.456 212.112C122.784 213.477 125.643 215.611 128.032 218.512C130.507 221.328 131.787 225.083 131.872 229.776C131.872 233.872 130.72 237.541 128.416 240.784C126.197 244.027 122.955 246.587 118.688 248.464C114.507 250.256 109.6 251.152 103.968 251.152ZM161.046 193.808V228.112C161.046 230.501 161.601 232.251 162.71 233.36C163.905 234.384 165.867 234.896 168.598 234.896H176.918V250H165.654C150.55 250 142.998 242.661 142.998 227.984V193.808H134.55V179.088H142.998V161.552H161.046V179.088H176.918V193.808H161.046ZM250.351 179.088V250H232.303V241.04C229.999 244.112 226.97 246.544 223.215 248.336C219.546 250.043 215.535 250.896 211.183 250.896C205.636 250.896 200.73 249.744 196.463 247.44C192.196 245.051 188.826 241.595 186.351 237.072C183.962 232.464 182.767 227.003 182.767 220.688V179.088H200.687V218.128C200.687 223.76 202.095 228.112 204.911 231.184C207.727 234.171 211.567 235.664 216.431 235.664C221.38 235.664 225.263 234.171 228.079 231.184C230.895 228.112 232.303 223.76 232.303 218.128V179.088H250.351ZM257.024 214.288C257.024 207.12 258.432 200.763 261.248 195.216C264.149 189.669 268.075 185.403 273.024 182.416C277.973 179.429 283.477 177.936 289.536 177.936C294.144 177.936 298.539 178.96 302.72 181.008C306.901 182.971 310.229 185.616 312.704 188.944V155.28H330.88V250H312.704V239.504C310.485 243.003 307.371 245.819 303.36 247.952C299.349 250.085 294.699 251.152 289.408 251.152C283.435 251.152 277.973 249.616 273.024 246.544C268.075 243.472 264.149 239.163 261.248 233.616C258.432 227.984 257.024 221.541 257.024 214.288ZM312.832 214.544C312.832 210.192 311.979 206.48 310.272 203.408C308.565 200.251 306.261 197.861 303.36 196.24C300.459 194.533 297.344 193.68 294.016 193.68C290.688 193.68 287.616 194.491 284.8 196.112C281.984 197.733 279.68 200.123 277.888 203.28C276.181 206.352 275.328 210.021 275.328 214.288C275.328 218.555 276.181 222.309 277.888 225.552C279.68 228.709 281.984 231.141 284.8 232.848C287.701 234.555 290.773 235.408 294.016 235.408C297.344 235.408 300.459 234.597 303.36 232.976C306.261 231.269 308.565 228.88 310.272 225.808C311.979 222.651 312.832 218.896 312.832 214.544ZM351.07 170.64C347.913 170.64 345.267 169.659 343.134 167.696C341.086 165.648 340.062 163.131 340.062 160.144C340.062 157.157 341.086 154.683 343.134 152.72C345.267 150.672 347.913 149.648 351.07 149.648C354.227 149.648 356.83 150.672 358.878 152.72C361.011 154.683 362.078 157.157 362.078 160.144C362.078 163.131 361.011 165.648 358.878 167.696C356.83 169.659 354.227 170.64 351.07 170.64ZM359.902 179.088V250H341.982V179.088H359.902ZM402.695 251.152C395.868 251.152 389.724 249.659 384.263 246.672C378.802 243.6 374.492 239.291 371.335 233.744C368.263 228.197 366.727 221.797 366.727 214.544C366.727 207.291 368.306 200.891 371.463 195.344C374.706 189.797 379.1 185.531 384.647 182.544C390.194 179.472 396.38 177.936 403.207 177.936C410.034 177.936 416.22 179.472 421.767 182.544C427.314 185.531 431.666 189.797 434.823 195.344C438.066 200.891 439.687 207.291 439.687 214.544C439.687 221.797 438.023 228.197 434.695 233.744C431.452 239.291 427.015 243.6 421.383 246.672C415.836 249.659 409.607 251.152 402.695 251.152ZM402.695 235.536C405.938 235.536 408.967 234.768 411.783 233.232C414.684 231.611 416.988 229.221 418.695 226.064C420.402 222.907 421.255 219.067 421.255 214.544C421.255 207.803 419.463 202.64 415.879 199.056C412.38 195.387 408.071 193.552 402.951 193.552C397.831 193.552 393.522 195.387 390.023 199.056C386.61 202.64 384.903 207.803 384.903 214.544C384.903 221.285 386.567 226.491 389.895 230.16C393.308 233.744 397.575 235.536 402.695 235.536Z" fill="black"/>
</svg>
